<?xml version="1.0" encoding="UTF-8"?>
<svg version="1.1" xmlns="http://www.w3.org/2000/svg" width="2771" height="2771">
<path d="M0 0 C2.75144017 1.26849457 4.87415341 2.59801696 7.08203125 4.66796875 C7.67193848 5.21912354 8.2618457 5.77027832 8.86962891 6.33813477 C9.51077637 6.94842529 10.15192383 7.55871582 10.8125 8.1875 C11.50263184 8.83968506 12.19276367 9.49187012 12.90380859 10.16381836 C23.1365184 19.90312941 33.04607708 29.97755998 43 40 C46.50265956 43.5265225 50.00712253 47.05121902 53.51580811 50.57174683 C54.89367245 51.95597018 56.26842189 53.34329195 57.64306641 54.73071289 C58.49175293 55.58270264 59.34043945 56.43469238 60.21484375 57.3125 C60.94823975 58.05113281 61.68163574 58.78976563 62.43725586 59.55078125 C64.44027695 61.46507177 66.46492095 63.26820917 68.56750488 65.06750488 C74.21120746 69.97445725 79.43312421 75.30963863 84.70507812 80.60742188 C85.8654529 81.76971929 87.02605813 82.93178668 88.18687439 84.09364319 C90.67257012 86.58248342 93.15670771 89.07286451 95.63963318 91.56446838 C99.57147154 95.50990732 103.50719121 99.45145936 107.44348145 103.39245605 C116.50814004 112.46912251 125.5677641 121.55080861 134.62734222 130.63254547 C142.93539936 138.96081896 151.24453276 147.28801117 159.55773306 155.61115122 C163.46491898 159.52329825 167.36965855 163.43786535 171.27249908 167.35434723 C173.70665015 169.79599421 176.14290415 172.23553474 178.57971382 174.67452812 C179.70281808 175.79949327 180.82506326 176.92531688 181.94634819 178.05209541 C187.29775358 183.42887653 192.65986165 188.74389364 198.43834686 193.66663361 C200.39961406 195.34119738 202.24331603 197.11031961 204.0625 198.9375 C204.94615234 199.81728516 204.94615234 199.81728516 205.84765625 200.71484375 C207.63561348 202.61312865 209.3291847 204.54589326 211.02380371 206.52600098 C215.39193339 211.52468983 220.06552109 216.19050832 224.77148438 220.86914062 C225.73674049 221.83247298 226.7017658 222.79603665 227.6665802 223.7598114 C229.72980003 225.81989225 231.79455733 227.87841465 233.86054993 229.93571472 C237.13390452 233.19543953 240.40334547 236.45907126 243.67224121 239.7232666 C250.61185586 246.65182522 257.55570042 253.57613744 264.5 260.5 C271.99940139 267.97733071 279.49805004 275.45540729 286.99181032 282.93839216 C290.23492317 286.17655259 293.48045091 289.41226624 296.7279129 292.64606476 C298.75438832 294.66502941 300.77874353 296.68611003 302.80255699 298.70774269 C304.17470808 300.07715907 305.54937781 301.44405034 306.92414856 302.81083679 C311.29428791 307.18060609 315.50328414 311.61840493 319.5313797 316.30553436 C321.3014856 318.34784824 323.1612121 320.27505921 325.08007812 322.17773438 C326.15654602 323.24924744 326.15654602 323.24924744 327.25476074 324.34240723 C328.38162292 325.4568219 328.38162292 325.4568219 329.53125 326.59375 C330.32599731 327.38471069 331.12074463 328.17567139 331.9395752 328.99060059 C334.45728432 331.49619523 336.97821446 333.99850858 339.5 336.5 C342.82588189 339.7991168 346.14832336 343.10164374 349.46875 346.40625 C350.59561218 347.52066467 350.59561218 347.52066467 351.74523926 348.65759277 C355.77850057 352.67228954 359.60731879 356.78551642 363.32116699 361.09631348 C366.00994631 364.14521288 368.88710377 366.99128109 371.78125 369.84375 C372.39842896 370.45714233 373.01560791 371.07053467 373.65148926 371.70251465 C375.59854038 373.63750058 377.54882407 375.56917405 379.5 377.5 C394.11565872 391.96322324 394.11565872 391.96322324 399.29492188 398.07226562 C403.14173952 402.42141685 407.36703876 406.42549648 411.5 410.5 C416.95145156 415.87434475 422.29890458 421.24128292 427.27929688 427.05664062 C430.51165886 430.70726511 434.02264611 434.0848528 437.5 437.5 C442.29927226 442.21341766 446.91513651 446.98043581 451.30273438 452.08007812 C454.05904143 455.19797207 457.02753105 458.09008335 460 461 C464.21237733 465.16400343 468.27261592 469.35309518 472.09765625 473.87890625 C475.32363237 477.4758365 478.80327485 480.82234186 482.23803711 484.21850586 C485.72419142 487.68051016 489.01654984 491.22846921 492.1953125 494.9765625 C494.97716502 498.09560927 497.97534855 500.99589641 500.94921875 503.9296875 C504.22053502 507.1739681 507.26978569 510.53635165 510.2578125 514.0390625 C512.97044244 517.09229171 515.90600453 519.9140315 518.8125 522.78125 C521.40196881 525.40771122 523.78836964 528.16976458 526.1875 530.96875 C528.92654841 534.03837322 531.8768364 536.88528608 534.8046875 539.7734375 C537.44006743 542.44633174 539.87766489 545.25368303 542.3203125 548.1015625 C544.52165393 550.58959026 546.88088515 552.89194077 549.25 555.21875 C551.70634849 557.71896185 553.96309368 560.37680516 556.25 563.03125 C558.45017811 565.50645037 560.79431048 567.80761753 563.15722656 570.12597656 C564.93008148 571.92889579 566.58680548 573.78572043 568.234375 575.703125 C571.9637204 579.99226643 575.83769759 584.12807593 579.75 588.25 C585.33590298 594.15979795 590.87777694 600.10259389 596.359375 606.109375 C599.2284038 609.25002783 602.11256177 612.37628746 605 615.5 C619.37054335 631.05708072 619.37054335 631.05708072 626.4375 638.9375 C629.92448189 642.823707 633.45336393 646.66838627 637 650.5 C642.04951322 655.95627073 647.04016684 661.46197136 652 667 C653.49956619 668.667057 654.99957053 670.33371995 656.5 672 C674.5 692 674.5 692 676.7421875 694.4921875 C678.26708244 696.18592894 679.79315402 697.87861169 681.3203125 699.5703125 C685.31556007 703.99894286 689.28113611 708.44881779 693.1953125 712.94921875 C695.22958141 715.26088797 697.3022231 717.5353143 699.375 719.8125 C702.44746773 723.21083552 705.38442622 726.67590523 708.25 730.25 C712.3488722 735.32342922 716.73239988 740.06069181 721.19995117 744.80541992 C725.24225403 749.12173717 728.99573491 753.60476234 732.69140625 758.22265625 C735.35279673 761.42443058 738.15465085 764.46231932 741 767.5 C745.47920355 772.28311685 749.68451839 777.20815468 753.7890625 782.3203125 C756.1093495 785.13253315 758.53071134 787.81797263 761 790.5 C765.11378909 794.9698512 768.97087297 799.59044893 772.78515625 804.31640625 C774.95632827 806.94708557 777.20241357 809.47942424 779.5 812 C783.34436481 816.2228256 786.96525534 820.58644573 790.55859375 825.0234375 C793.28530483 828.34784365 796.07080022 831.61598035 798.875 834.875 C806.91775861 844.22582571 814.89875871 853.61618468 822.68359375 863.18359375 C825.27787422 866.33785382 827.91614017 869.45196195 830.5625 872.5625 C834.47648972 877.16679725 838.30260354 881.82767598 842.05859375 886.5625 C844.82628803 890.03743206 847.64808384 893.46715285 850.46484375 896.90234375 C853.96367727 901.17279377 857.44251799 905.45951362 860.9206543 909.74682617 C863.69465097 913.16569586 866.47327932 916.58046866 869.265625 919.984375 C875.36303161 927.42950351 881.3058699 934.9658235 887.1184082 942.63549805 C891.40583258 948.27344495 895.84240795 953.77539167 900.3293457 959.25512695 C905.35456659 965.40333632 910.18929637 971.6834748 915 978 C916.54080307 980.00066539 918.08249495 982.00064653 919.625 984 C939.61478753 1009.97177891 959.2590684 1036.18715184 978.40429688 1062.78808594 C979.97786942 1064.96932327 981.55809594 1067.14556677 983.140625 1069.3203125 C991.93881686 1081.42377471 1000.49821795 1093.68692268 1009 1106 C1009.54591797 1106.78922852 1010.09183594 1107.57845703 1010.65429688 1108.39160156 C1025.13078774 1129.33961325 1039.3159479 1150.52518205 1053 1172 C1053.68570068 1173.07290283 1053.68570068 1173.07290283 1054.38525391 1174.16748047 C1062.78630984 1187.32620493 1070.92362784 1200.64012938 1079 1214 C1079.76546143 1215.26215332 1079.76546143 1215.26215332 1080.54638672 1216.54980469 C1097.41716567 1244.37296207 1113.22541695 1272.71987702 1128.19140625 1301.609375 C1129.88007429 1304.86466617 1131.58827663 1308.1062643 1133.33984375 1311.328125 C1158.96470405 1358.63894478 1179.52837601 1409.16834002 1197 1460 C1197.43231934 1461.24394531 1197.86463867 1462.48789063 1198.31005859 1463.76953125 C1206.11883103 1486.26196063 1212.83332004 1509.00581164 1219 1532 C1219.20002625 1532.74340637 1219.40005249 1533.48681274 1219.60614014 1534.25274658 C1240.83584233 1613.340816 1250.67904006 1694.6220499 1258 1776 C1258.09144791 1776.98193832 1258.18289581 1777.96387665 1258.27711487 1778.97557068 C1258.97232504 1786.75287958 1259.31217771 1794.52052548 1259.55078125 1802.32421875 C1259.57159571 1802.98959845 1259.59241016 1803.65497814 1259.61385536 1804.34052086 C1260.08164227 1819.49642186 1260.20004715 1834.6496183 1260.1875 1849.8125 C1260.18723312 1850.49427181 1260.18696625 1851.17604362 1260.18669128 1851.87847519 C1260.13964113 1948.45225261 1250.53695738 2044.6723195 1159.62841797 2327.69628906 C1158.11878628 2330.7590081 1156.62239344 2333.82782365 1155.12890625 2336.8984375 C1136.19369465 2375.58917096 1112.82816001 2412.53187429 1087 2447 C1086.47390137 2447.70334473 1085.94780273 2448.40668945 1085.40576172 2449.13134766 C1071.78536016 2467.27690812 1057.40614206 2484.8304195 1042.15234375 2501.62890625 C1040.65761439 2503.27555003 1039.17120285 2504.92976736 1037.69140625 2506.58984375 C1033.79375818 2510.96073071 1029.83855406 2515.20633986 1025.66015625 2519.30859375 C1023.95986377 2521.04089174 1022.38666988 2522.84022113 1020.8125 2524.6875 C1014.07170104 2532.49103754 1006.64045115 2539.74328593 998.79296875 2546.42578125 C996.94570371 2548.0476719 995.22243286 2549.74660205 993.5 2551.5 C989.8369356 2555.2121233 985.95145365 2558.59962071 982 2562 C980.91735087 2562.94590785 979.83537557 2563.89258723 978.75390625 2564.83984375 C963.72739331 2577.97862428 948.33073254 2590.46690006 932.26757812 2602.3203125 C930.31935199 2603.76344297 928.38325408 2605.22033351 926.453125 2606.6875 C892.62422559 2632.22315131 855.68777937 2653.76003538 818 2673 C816.85313721 2673.58587891 816.85313721 2673.58587891 815.68310547 2674.18359375 C808.38365907 2677.90027676 801.03178475 2681.50205518 793.625 2685 C792.98755859 2685.30333252 792.35011719 2685.60666504 791.69335938 2685.91918945 C787.23701284 2688 787.23701284 2688 785 2688 C784.67 2688.66 784.34 2689.32 784 2690 C782.25463867 2690.92285156 782.25463867 2690.92285156 779.91796875 2691.890625 C778.57835083 2692.44919189 778.57835083 2692.44919189 777.21166992 2693.01904297 C776.21369385 2693.42525879 775.21571777 2693.83147461 774.1875 2694.25 C773.13216064 2694.68328613 772.07682129 2695.11657227 770.98950195 2695.56298828 C767.33155894 2697.05514342 763.66717218 2698.53072509 760 2700 C758.99670654 2700.40273132 758.99670654 2700.40273132 757.97314453 2700.81359863 C697.06876136 2725.23483724 634.57801931 2743.27963677 570 2755 C569.04217621 2755.17651596 569.04217621 2755.17651596 568.06500244 2755.3565979 C556.29275303 2757.52352998 544.48444292 2759.31846522 532.625 2760.9375 C531.68334991 2761.0662854 530.74169983 2761.1950708 529.77151489 2761.32775879 C515.52009012 2763.26135795 501.25670648 2764.90912614 486.9375 2766.25 C485.7336264 2766.36515457 485.7336264 2766.36515457 484.50543213 2766.4826355 C478.34225121 2767.06501764 472.17454423 2767.5548311 466 2768 C464.18876648 2768.1308046 464.18876648 2768.1308046 462.34094238 2768.26425171 C438.92940517 2769.8987309 415.58478923 2770.36554359 392.12026596 2770.31785583 C389.32697159 2770.3124063 386.53368571 2770.3100453 383.74038696 2770.3079834 C355.59421948 2770.27564547 327.59678099 2769.71920658 299.54455566 2767.22460938 C297.00788242 2767.00069579 294.47048478 2766.78803028 291.93261719 2766.578125 C203.29379184 2759.16765263 115.93919768 2740.28066607 31.42578125 2712.80078125 C30.64167877 2712.54616119 29.85757629 2712.29154114 29.04971313 2712.02920532 C25.30890076 2710.80197861 21.64799948 2709.48461587 18 2708 C15.93197781 2707.26327462 13.85995813 2706.53772258 11.78515625 2705.8203125 C-3.54321702 2700.4766141 -18.70554722 2694.86508618 -33.72827148 2688.70947266 C-35.51213257 2687.98123291 -35.51213257 2687.98123291 -37.33203125 2687.23828125 C-38.38108643 2686.80555908 -39.4301416 2686.37283691 -40.51098633 2685.92700195 C-42.86969961 2684.88366092 -42.86969961 2684.88366092 -45 2685 C-45 2684.34 -45 2683.68 -45 2683 C-46.08365845 2682.8158252 -46.08365845 2682.8158252 -47.18920898 2682.62792969 C-49.99493639 2682.00113121 -52.3470095 2681.11450253 -54.97265625 2679.953125 C-55.93953369 2679.52749268 -56.90641113 2679.10186035 -57.90258789 2678.66333008 C-58.94535889 2678.19693115 -59.98812988 2677.73053223 -61.0625 2677.25 C-62.1652124 2676.75975342 -63.2679248 2676.26950684 -64.40405273 2675.7644043 C-67.94034694 2674.18567043 -71.47120223 2672.59541557 -75 2671 C-76.12019531 2670.49355957 -77.24039062 2669.98711914 -78.39453125 2669.46533203 C-104.65539641 2657.53864982 -130.55800773 2644.92126978 -155.51367188 2630.43994141 C-159.41061865 2628.18304902 -163.32863055 2625.96409737 -167.25 2623.75 C-167.90033203 2623.37883057 -168.55066406 2623.00766113 -169.22070312 2622.62524414 C-171.79834413 2621.16638067 -174.18080197 2619.93973268 -177 2619 C-177 2618.34 -177 2617.68 -177 2617 C-177.78375 2616.79375 -178.5675 2616.5875 -179.375 2616.375 C-187.60235058 2613.25428081 -194.96988494 2607.79984467 -202.3125 2603 C-203.59447266 2602.16359985 -203.59447266 2602.16359985 -204.90234375 2601.31030273 C-219.25590863 2591.92739202 -233.52217165 2582.44114434 -247.51757812 2572.52954102 C-250.65602642 2570.31124051 -253.73237269 2568.1546367 -257.0625 2566.23046875 C-257.701875 2565.82441406 -258.34125 2565.41835937 -259 2565 C-259 2564.34 -259 2563.68 -259 2563 C-259.515625 2562.7525 -260.03125 2562.505 -260.5625 2562.25 C-266.38151963 2559.26588737 -270.36940169 2556.63059831 -275 2552 C-276.80749995 2550.59121327 -278.6424626 2549.2171218 -280.5 2547.875 C-285.71485701 2544.03315232 -290.67055025 2539.98060747 -295.546875 2535.71826172 C-297.90909358 2533.67374658 -300.18175233 2531.89297081 -302.87890625 2530.3046875 C-303.57886719 2529.87414063 -304.27882813 2529.44359375 -305 2529 C-305 2528.34 -305 2527.68 -305 2527 C-305.55171875 2526.76667969 -306.1034375 2526.53335938 -306.671875 2526.29296875 C-309.61255267 2524.65980716 -311.79077251 2522.60660793 -314.25 2520.3125 C-315.23131404 2519.40575539 -316.21308741 2518.49950765 -317.1953125 2517.59375 C-318.12085938 2516.7378125 -319.04640625 2515.881875 -320 2515 C-324.80922165 2510.6561869 -329.74554757 2506.5766467 -334.921875 2502.67578125 C-337.11985721 2500.90334823 -339.10559606 2499.09493769 -341 2497 C-341 2496.34 -341 2495.68 -341 2495 C-341.88365234 2494.60748047 -341.88365234 2494.60748047 -342.78515625 2494.20703125 C-345.11785434 2492.9357725 -346.60354368 2491.59769469 -348.4375 2489.6875 C-348.99308594 2489.11386719 -349.54867187 2488.54023438 -350.12109375 2487.94921875 C-350.74113281 2487.30597656 -351.36117187 2486.66273438 -352 2486 C-353.66385847 2484.33052986 -355.33090556 2482.66423536 -357 2481 C-358.05225048 2479.94808384 -359.10432527 2478.89599191 -360.15625 2477.84375 C-360.70410156 2477.29589844 -361.25195312 2476.74804688 -361.81640625 2476.18359375 C-363.4921875 2474.5078125 -365.16796875 2472.83203125 -366.84375 2471.15625 C-367.64498291 2470.35513794 -367.64498291 2470.35513794 -368.46240234 2469.5378418 C-369.87395223 2468.12606778 -371.28467312 2466.71346504 -372.6953125 2465.30078125 C-374.04933974 2463.94904897 -375.40708187 2462.60098804 -376.7734375 2461.26171875 C-380.33439961 2457.76155356 -383.66931812 2454.1388203 -386.92578125 2450.35546875 C-389.01431603 2447.98374282 -391.15519097 2445.67116064 -393.31201172 2443.36181641 C-398.32793634 2437.9886188 -403.13471725 2432.52492142 -407.73828125 2426.7890625 C-409.74640819 2424.31271944 -411.80137255 2421.88520477 -413.88085938 2419.46875 C-420.40147783 2411.87841525 -426.45895931 2403.96917203 -432.48925781 2395.98681641 C-433.83038844 2394.22306058 -435.18610115 2392.47294725 -436.5546875 2390.73046875 C-454.51337978 2367.79633549 -470.30564936 2343.12404759 -485 2318 C-485.47469727 2317.19481934 -485.94939453 2316.38963867 -486.43847656 2315.56005859 C-506.46604694 2281.52402198 -523.1593289 2245.97319599 -537 2209 C-537.44408203 2207.82663086 -537.88816406 2206.65326172 -538.34570312 2205.44433594 C-559.58168814 2148.99328224 -588.47623398 2071.61159709 -562.21484375 2012.9375 C-542.72331116 1971.16357928 -499.4641786 1947.56676475 -458.05249023 1932.19848633 C-405.76269977 1913.3053931 -350.86392276 1903.04905599 -296 1895 C-294.9752356 1894.84915955 -293.95047119 1894.69831909 -292.89465332 1894.54290771 C-226.88769541 1884.86285637 -160.46463329 1878.29483103 -94.13207531 1871.30802155 C-15.99742835 1863.07773684 62.04904225 1854.61487822 464.54003906 1746.33154297 C467.1320998 1744.9284962 469.73349701 1743.5438449 472.3359375 1742.16015625 C503.69492501 1725.39385483 533.24001543 1705.45842803 560 1682 C561.33417969 1680.83404297 561.33417969 1680.83404297 562.6953125 1679.64453125 C569.23473899 1673.78513059 575.49062274 1667.63546388 581.72268677 1661.45254517 C583.1444053 1660.04273377 584.57006788 1658.63690321 585.99584961 1657.23120117 C592.10227731 1651.13240583 597.64115397 1644.76032955 603 1638 C604.02514548 1636.74559611 605.05220561 1635.49275199 606.08203125 1634.2421875 C617.21650072 1620.56639229 627.24307773 1606.30927786 636 1591 C636.58297852 1589.99428955 636.58297852 1589.99428955 637.17773438 1588.96826172 C648.82807915 1568.82404641 658.36991299 1547.98200149 666 1526 C666.51989502 1524.51209961 666.51989502 1524.51209961 667.05029297 1522.99414062 C682.08498978 1479.46484464 689.05991292 1432.98592613 690 1387 C690.02191406 1385.96391602 690.04382812 1384.92783203 690.06640625 1383.86035156 C691.63483201 1294.95675131 673.73318197 1206.37042055 633.6796875 1075.984375 C633.45210754 1075.29053711 633.22452759 1074.59669922 632.99005127 1073.88183594 C631.65183715 1069.84142312 630.212602 1065.85136294 628.70346069 1061.87176514 C627.72136356 1059.25860539 626.80870224 1056.62331562 625.8984375 1053.984375 C613.30202554 1017.78401339 599.17904825 982.19048496 584 947 C583.54687439 945.94773224 583.54687439 945.94773224 583.08459473 944.87420654 C557.77870681 886.12287922 530.43885776 828.17148284 500.81347656 771.47412109 C499.1051358 768.2014112 497.40626706 764.92399578 495.7109375 761.64453125 C489.98901679 750.59402079 484.11466534 739.63618492 478.12890625 728.7265625 C475.33321716 723.62494007 472.58156962 718.50050557 469.83544922 713.37207031 C463.78972024 702.08648754 457.60568954 690.89271986 451.2734375 679.765625 C448.44670886 674.79805262 445.65518497 669.81155471 442.87182617 664.81958008 C432.52744227 646.27197685 421.88530497 627.89868872 411.1625061 609.56799316 C410.44481832 608.34108454 409.7274957 607.11396222 409.0105896 605.88659668 C404.43994426 598.0612137 404.43994426 598.0612137 399.71826172 590.32666016 C399.34640244 589.73021194 398.97454315 589.13376373 398.59141541 588.51924133 C397.55434795 586.86258881 396.51064441 585.21009589 395.46655273 583.55786133 C394 581 394 581 394 579 C393.34 578.67 392.68 578.34 392 578 C390.59919123 575.77037937 389.28269617 573.54584025 388 571.25 C387.64421875 570.62867188 387.2884375 570.00734375 386.921875 569.3671875 C385.39151207 566.66050082 384.00362746 564.00932056 382.875 561.109375 C382.1976331 558.82597737 382.1976331 558.82597737 380 558 C378.90402444 556.2198137 377.87667381 554.39740471 376.875 552.5625 C371.31233061 542.58053973 365.22654426 532.91531375 359.21417236 523.20072937 C356.76591765 519.24388362 354.3291949 515.28013089 351.8984375 511.3125 C345.46131558 500.80880372 338.98729263 490.33204529 332.375 479.9375 C331.81925293 479.06383789 331.26350586 478.19017578 330.69091797 477.29003906 C327.57128672 472.4060651 324.3837208 467.58225628 321.08837891 462.81469727 C320 461 320 461 320 459 C319.34 458.67 318.68 458.34 318 458 C316.90638568 456.26739718 315.87514171 454.49522066 314.875 452.70703125 C311.15369106 446.19954601 307.13147444 439.94025768 303 433.6875 C302.24283043 432.53651498 301.48600202 431.38530547 300.72949219 430.23388672 C299.20028551 427.90668525 297.66985514 425.58029587 296.13867188 423.25439453 C293.72452701 419.58081564 291.32608294 415.89730148 288.93115234 412.21118164 C267.14633736 378.69875859 245.00829036 345.42608774 222.58447266 312.33831787 C221.07780212 310.11481807 219.57192621 307.89078287 218.06640625 305.66650391 C204.54034541 285.68404747 190.88031112 265.8015606 177.08935547 246.00097656 C175.02829201 243.04063629 172.96890457 240.07913819 170.91015625 237.1171875 C162.2981249 224.72745728 153.66927883 212.34975575 145 200 C144.4848584 199.26587891 143.9697168 198.53175781 143.43896484 197.77539062 C137.30911225 189.04600825 131.11372454 180.36758361 124.85522461 171.72998047 C121.1997434 166.67894855 117.58643509 161.60024775 114 156.5 C108.28226802 148.37202697 102.47175675 140.31333638 96.64111328 132.26611328 C93.92351816 128.51355186 91.21212991 124.75651207 88.5 121 C87.96310547 120.25685547 87.42621094 119.51371094 86.87304688 118.74804688 C84.17422714 115.01246565 81.4775533 111.27536973 78.78515625 107.53515625 C72.65124511 99.0191437 66.46711146 90.54315961 60.22851562 82.10351562 C56.30085402 76.78399165 52.42025495 71.43286832 48.5625 66.0625 C43.35309615 58.81798646 38.02961048 51.66513478 32.66088867 44.53808594 C27.777716 38.05229855 22.96040195 31.52050514 18.15991211 24.97338867 C13.49892849 18.63495765 8.73407038 12.38015172 3.90966797 6.1652832 C0 1.10452371 0 1.10452371 0 0 Z " fill="#1A92A7" transform="translate(1041,1)"/>
<path d="M0 0 C2.75144017 1.26849457 4.87415341 2.59801696 7.08203125 4.66796875 C7.67193848 5.21912354 8.2618457 5.77027832 8.86962891 6.33813477 C9.51077637 6.94842529 10.15192383 7.55871582 10.8125 8.1875 C11.50263184 8.83968506 12.19276367 9.49187012 12.90380859 10.16381836 C23.1365184 19.90312941 33.04607708 29.97755998 43 40 C46.50265956 43.5265225 50.00712253 47.05121902 53.51580811 50.57174683 C54.89367245 51.95597018 56.26842189 53.34329195 57.64306641 54.73071289 C58.91609619 56.00869751 58.91609619 56.00869751 60.21484375 57.3125 C61.31493774 58.42044922 61.31493774 58.42044922 62.43725586 59.55078125 C64.44027695 61.46507177 66.46492095 63.26820917 68.56750488 65.06750488 C74.21120746 69.97445725 79.43312421 75.30963863 84.70507812 80.60742188 C85.8654529 81.76971929 87.02605813 82.93178668 88.18687439 84.09364319 C90.67257012 86.58248342 93.15670771 89.07286451 95.63963318 91.56446838 C99.57147154 95.50990732 103.50719121 99.45145936 107.44348145 103.39245605 C116.50814004 112.46912251 125.5677641 121.55080861 134.62734222 130.63254547 C142.93539936 138.96081896 151.24453276 147.28801117 159.55773306 155.61115122 C163.46491898 159.52329825 167.36965855 163.43786535 171.27249908 167.35434723 C173.70665015 169.79599421 176.14290415 172.23553474 178.57971382 174.67452812 C179.70281808 175.79949327 180.82506326 176.92531688 181.94634819 178.05209541 C187.29775358 183.42887653 192.65986165 188.74389364 198.43834686 193.66663361 C200.39961406 195.34119738 202.24331603 197.11031961 204.0625 198.9375 C204.94615234 199.81728516 204.94615234 199.81728516 205.84765625 200.71484375 C207.63561348 202.61312865 209.3291847 204.54589326 211.02380371 206.52600098 C215.39193339 211.52468983 220.06552109 216.19050832 224.77148438 220.86914062 C225.73674049 221.83247298 226.7017658 222.79603665 227.6665802 223.7598114 C229.72980003 225.81989225 231.79455733 227.87841465 233.86054993 229.93571472 C237.13390452 233.19543953 240.40334547 236.45907126 243.67224121 239.7232666 C250.61185586 246.65182522 257.55570042 253.57613744 264.5 260.5 C271.99940139 267.97733071 279.49805004 275.45540729 286.99181032 282.93839216 C290.23492317 286.17655259 293.48045091 289.41226624 296.7279129 292.64606476 C298.75438832 294.66502941 300.77874353 296.68611003 302.80255699 298.70774269 C304.17470808 300.07715907 305.54937781 301.44405034 306.92414856 302.81083679 C311.29428791 307.18060609 315.50328414 311.61840493 319.5313797 316.30553436 C321.3014856 318.34784824 323.1612121 320.27505921 325.08007812 322.17773438 C325.79772339 322.89207642 326.51536865 323.60641846 327.25476074 324.34240723 C328.38162292 325.4568219 328.38162292 325.4568219 329.53125 326.59375 C330.32599731 327.38471069 331.12074463 328.17567139 331.9395752 328.99060059 C334.45728432 331.49619523 336.97821446 333.99850858 339.5 336.5 C342.82588189 339.7991168 346.14832336 343.10164374 349.46875 346.40625 C350.59561218 347.52066467 350.59561218 347.52066467 351.74523926 348.65759277 C355.77850057 352.67228954 359.60731879 356.78551642 363.32116699 361.09631348 C366.00994631 364.14521288 368.88710377 366.99128109 371.78125 369.84375 C372.39842896 370.45714233 373.01560791 371.07053467 373.65148926 371.70251465 C375.59854038 373.63750058 377.54882407 375.56917405 379.5 377.5 C394.11565872 391.96322324 394.11565872 391.96322324 399.29492188 398.07226562 C403.14173952 402.42141685 407.36703876 406.42549648 411.5 410.5 C416.95145156 415.87434475 422.29890458 421.24128292 427.27929688 427.05664062 C430.51165886 430.70726511 434.02264611 434.0848528 437.5 437.5 C442.29927226 442.21341766 446.91513651 446.98043581 451.30273438 452.08007812 C454.05904143 455.19797207 457.02753105 458.09008335 460 461 C464.21237733 465.16400343 468.27261592 469.35309518 472.09765625 473.87890625 C475.32363237 477.4758365 478.80327485 480.82234186 482.23803711 484.21850586 C485.72419142 487.68051016 489.01654984 491.22846921 492.1953125 494.9765625 C494.97716502 498.09560927 497.97534855 500.99589641 500.94921875 503.9296875 C504.22053502 507.1739681 507.26978569 510.53635165 510.2578125 514.0390625 C512.97044244 517.09229171 515.90600453 519.9140315 518.8125 522.78125 C521.40196881 525.40771122 523.78836964 528.16976458 526.1875 530.96875 C528.92654841 534.03837322 531.8768364 536.88528608 534.8046875 539.7734375 C537.44006743 542.44633174 539.87766489 545.25368303 542.3203125 548.1015625 C544.52165393 550.58959026 546.88088515 552.89194077 549.25 555.21875 C551.70634849 557.71896185 553.96309368 560.37680516 556.25 563.03125 C558.45017811 565.50645037 560.79431048 567.80761753 563.15722656 570.12597656 C564.93008148 571.92889579 566.58680548 573.78572043 568.234375 575.703125 C571.9637204 579.99226643 575.83769759 584.12807593 579.75 588.25 C585.33590298 594.15979795 590.87777694 600.10259389 596.359375 606.109375 C599.2284038 609.25002783 602.11256177 612.37628746 605 615.5 C619.37054335 631.05708072 619.37054335 631.05708072 626.4375 638.9375 C629.92448189 642.823707 633.45336393 646.66838627 637 650.5 C642.04951322 655.95627073 647.04016684 661.46197136 652 667 C653.49956619 668.667057 654.99957053 670.33371995 656.5 672 C674.5 692 674.5 692 676.7421875 694.4921875 C678.26708244 696.18592894 679.79315402 697.87861169 681.3203125 699.5703125 C685.31556007 703.99894286 689.28113611 708.44881779 693.1953125 712.94921875 C695.22958141 715.26088797 697.3022231 717.5353143 699.375 719.8125 C702.44746773 723.21083552 705.38442622 726.67590523 708.25 730.25 C712.3488722 735.32342922 716.73239988 740.06069181 721.19995117 744.80541992 C725.24225403 749.12173717 728.99573491 753.60476234 732.69140625 758.22265625 C735.35279673 761.42443058 738.15465085 764.46231932 741 767.5 C745.47920355 772.28311685 749.68451839 777.20815468 753.7890625 782.3203125 C756.1093495 785.13253315 758.53071134 787.81797263 761 790.5 C765.11378909 794.9698512 768.97087297 799.59044893 772.78515625 804.31640625 C774.95632827 806.94708557 777.20241357 809.47942424 779.5 812 C783.34436481 816.2228256 786.96525534 820.58644573 790.55859375 825.0234375 C793.28530483 828.34784365 796.07080022 831.61598035 798.875 834.875 C806.91775861 844.22582571 814.89875871 853.61618468 822.68359375 863.18359375 C825.27787422 866.33785382 827.91614017 869.45196195 830.5625 872.5625 C834.47648972 877.16679725 838.30260354 881.82767598 842.05859375 886.5625 C844.82628803 890.03743206 847.64808384 893.46715285 850.46484375 896.90234375 C853.96367727 901.17279377 857.44251799 905.45951362 860.9206543 909.74682617 C863.69465097 913.16569586 866.47327932 916.58046866 869.265625 919.984375 C875.36303161 927.42950351 881.3058699 934.9658235 887.1184082 942.63549805 C891.40583258 948.27344495 895.84240795 953.77539167 900.3293457 959.25512695 C905.35456659 965.40333632 910.18929637 971.6834748 915 978 C916.54080307 980.00066539 918.08249495 982.00064653 919.625 984 C939.61478753 1009.97177891 959.2590684 1036.18715184 978.40429688 1062.78808594 C979.97786942 1064.96932327 981.55809594 1067.14556677 983.140625 1069.3203125 C991.93881686 1081.42377471 1000.49821795 1093.68692268 1009 1106 C1009.54591797 1106.78922852 1010.09183594 1107.57845703 1010.65429688 1108.39160156 C1018.91169791 1120.34036283 1026.9753418 1132.41720828 1035.02246094 1144.50805664 C1035.43519257 1145.12795975 1035.84792419 1145.74786285 1036.27316284 1146.3865509 C1037.08327399 1147.60543735 1037.89166802 1148.82546694 1038.69827271 1150.04667664 C1040.34701395 1152.53990409 1042.00951462 1155.0132352 1043.75439453 1157.44042969 C1047.41348688 1162.56899484 1049.60937154 1167.76554089 1051.76220703 1173.67919922 C1053.71888306 1178.9286484 1056.10587578 1183.97151749 1058.4375 1189.0625 C1065.97061537 1205.77559862 1072.52563292 1222.85459043 1079 1240 C1079.44504883 1241.17369141 1079.89009766 1242.34738281 1080.34863281 1243.55664062 C1091.10080818 1272.07440072 1099.06707918 1301.35423569 1106 1331 C1106.26296875 1332.11133301 1106.5259375 1333.22266602 1106.796875 1334.36767578 C1119.00704966 1387.20211904 1121.43462987 1446.36413691 1107 1499 C1106.74879395 1499.95197266 1106.49758789 1500.90394531 1106.23876953 1501.88476562 C1100.75417587 1522.56030668 1093.07146643 1542.13298027 1083 1561 C1082.66033203 1561.64598145 1082.32066406 1562.29196289 1081.97070312 1562.95751953 C1074.18417903 1577.6859401 1064.65363549 1591.20315269 1054 1604 C1053.29875 1604.88558594 1052.5975 1605.77117187 1051.875 1606.68359375 C1045.54268684 1614.48735788 1038.5825049 1621.63311194 1031.5 1628.75 C1031.01562469 1629.2395517 1030.53124939 1629.72910339 1030.03219604 1630.23348999 C1023.36904208 1636.95266878 1016.41646176 1643.12040125 1009 1649 C1007.78035139 1650.00123147 1006.56259482 1651.00477711 1005.34765625 1652.01171875 C932.11240328 1711.97239588 837.15830952 1744.17632325 679 1783 C677.87069061 1783.22659302 677.87069061 1783.22659302 676.71856689 1783.45776367 C665.49181241 1785.70588203 654.25215773 1787.88293449 643 1790 C641.5308313 1790.27765198 641.5308313 1790.27765198 640.03198242 1790.56091309 C624.39988264 1793.51033214 608.74778761 1796.28286754 593.04638672 1798.83789062 C589.81791822 1799.36393349 586.59057427 1799.89648685 583.36328125 1800.4296875 C546.02658844 1806.55929521 508.59274559 1811.89690968 471.03152466 1816.44514465 C467.92277211 1816.82185835 464.81427599 1817.20063696 461.70581055 1817.57971191 C415.78879468 1823.17095894 369.80696829 1828.088287 323.78417969 1832.71976471 C321.03381395 1832.99659653 318.28350396 1833.27397685 315.53320312 1833.55145264 C268.97137134 1838.24566744 222.37923774 1842.53638589 175.75966835 1846.6134491 C154.45156134 1848.4777138 133.15346631 1850.44791349 111.85791016 1852.45019531 C107.04682608 1852.90241469 102.2353151 1853.34989007 97.42366028 1853.79598999 C78.6945397 1855.53451834 59.98301517 1857.36575594 41.29638672 1859.51782227 C32.23100663 1860.55687746 23.1583805 1861.49431388 14.078125 1862.39453125 C-1.33181248 1863.92229826 -16.7328008 1865.52843524 -32.13183594 1867.16210938 C-35.83622299 1867.55501783 -39.54087246 1867.94539622 -43.24558258 1868.33524513 C-46.1488135 1868.64114428 -49.05187011 1868.94867298 -51.95487976 1869.25666428 C-53.32307316 1869.40156295 -54.69132756 1869.54588696 -56.05964661 1869.68959427 C-57.95205469 1869.88851721 -59.84419752 1870.08995871 -61.73632812 1870.29150391 C-62.80500122 1870.40458893 -63.87367432 1870.51767395 -64.97473145 1870.63418579 C-67.06236258 1870.88662128 -69.14410369 1871.1913313 -71.21813965 1871.53817749 C-73.99563071 1871.99927465 -76.56355671 1872.10049248 -79.375 1872.0625 C-80.24898437 1872.05347656 -81.12296875 1872.04445313 -82.0234375 1872.03515625 C-82.67570313 1872.02355469 -83.32796875 1872.01195312 -84 1872 C-80.46629942 1869.64419961 -77.5380382 1869.40453731 -73.43261719 1868.99780273 C-72.65712713 1868.91423051 -71.88163708 1868.83065828 -71.08264732 1868.74455357 C-68.48813238 1868.46667762 -65.89255537 1868.20034476 -63.296875 1867.93359375 C-61.45554431 1867.73793669 -59.61430855 1867.54138436 -57.77316284 1867.34399414 C-53.82991327 1866.92225103 -49.88624418 1866.50478832 -45.94219971 1866.09054565 C-35.50296675 1864.9923618 -25.06783076 1863.85617774 -14.6328125 1862.71875 C-13.58130886 1862.60428465 -12.52980522 1862.4898193 -11.44643784 1862.3718853 C85.96891217 1851.75184334 183.62522916 1838.26158452 523 1711 C523.73879395 1710.47083984 524.47758789 1709.94167969 525.23876953 1709.39648438 C545.51451601 1694.84126003 564.07528689 1678.94520448 581.78604126 1661.38818359 C583.20416111 1659.98292322 584.62582674 1658.58124388 586.04760742 1657.1796875 C592.13620726 1651.09819732 597.65582925 1644.74027136 603 1638 C604.02516228 1636.74560984 605.05222386 1635.49276701 606.08203125 1634.2421875 C617.21650072 1620.56639229 627.24307773 1606.30927786 636 1591 C636.58297852 1589.99428955 636.58297852 1589.99428955 637.17773438 1588.96826172 C648.82807915 1568.82404641 658.36991299 1547.98200149 666 1526 C666.34659668 1525.00806641 666.69319336 1524.01613281 667.05029297 1522.99414062 C682.08498978 1479.46484464 689.05991292 1432.98592613 690 1387 C690.02191406 1385.96391602 690.04382812 1384.92783203 690.06640625 1383.86035156 C691.63483201 1294.95675131 673.73318197 1206.37042055 633.6796875 1075.984375 C633.33831757 1074.94361816 633.33831757 1074.94361816 632.99005127 1073.88183594 C631.65183715 1069.84142312 630.212602 1065.85136294 628.70346069 1061.87176514 C627.72136356 1059.25860539 626.80870224 1056.62331562 625.8984375 1053.984375 C613.30202554 1017.78401339 599.17904825 982.19048496 584 947 C583.54687439 945.94773224 583.54687439 945.94773224 583.08459473 944.87420654 C557.77870681 886.12287922 530.43885776 828.17148284 500.81347656 771.47412109 C499.1051358 768.2014112 497.40626706 764.92399578 495.7109375 761.64453125 C489.98901679 750.59402079 484.11466534 739.63618492 478.12890625 728.7265625 C475.33321716 723.62494007 472.58156962 718.50050557 469.83544922 713.37207031 C463.78972024 702.08648754 457.60568954 690.89271986 451.2734375 679.765625 C448.44670886 674.79805262 445.65518497 669.81155471 442.87182617 664.81958008 C432.52744227 646.27197685 421.88530497 627.89868872 411.1625061 609.56799316 C410.44481832 608.34108454 409.7274957 607.11396222 409.0105896 605.88659668 C404.43994426 598.0612137 404.43994426 598.0612137 399.71826172 590.32666016 C399.34640244 589.73021194 398.97454315 589.13376373 398.59141541 588.51924133 C397.55434795 586.86258881 396.51064441 585.21009589 395.46655273 583.55786133 C394 581 394 581 394 579 C393.34 578.67 392.68 578.34 392 578 C390.59919123 575.77037937 389.28269617 573.54584025 388 571.25 C387.64421875 570.62867188 387.2884375 570.00734375 386.921875 569.3671875 C385.39151207 566.66050082 384.00362746 564.00932056 382.875 561.109375 C382.1976331 558.82597737 382.1976331 558.82597737 380 558 C378.90402444 556.2198137 377.87667381 554.39740471 376.875 552.5625 C371.31233061 542.58053973 365.22654426 532.91531375 359.21417236 523.20072937 C356.76591765 519.24388362 354.3291949 515.28013089 351.8984375 511.3125 C345.46131558 500.80880372 338.98729263 490.33204529 332.375 479.9375 C331.81925293 479.06383789 331.26350586 478.19017578 330.69091797 477.29003906 C327.57128672 472.4060651 324.3837208 467.58225628 321.08837891 462.81469727 C320 461 320 461 320 459 C319.34 458.67 318.68 458.34 318 458 C316.90638568 456.26739718 315.87514171 454.49522066 314.875 452.70703125 C311.15369106 446.19954601 307.13147444 439.94025768 303 433.6875 C302.24283043 432.53651498 301.48600202 431.38530547 300.72949219 430.23388672 C299.20028551 427.90668525 297.66985514 425.58029587 296.13867188 423.25439453 C293.72452701 419.58081564 291.32608294 415.89730148 288.93115234 412.21118164 C267.14633736 378.69875859 245.00829036 345.42608774 222.58447266 312.33831787 C221.07780212 310.11481807 219.57192621 307.89078287 218.06640625 305.66650391 C204.54034541 285.68404747 190.88031112 265.8015606 177.08935547 246.00097656 C175.02829201 243.04063629 172.96890457 240.07913819 170.91015625 237.1171875 C162.2981249 224.72745728 153.66927883 212.34975575 145 200 C144.4848584 199.26587891 143.9697168 198.53175781 143.43896484 197.77539062 C137.30911225 189.04600825 131.11372454 180.36758361 124.85522461 171.72998047 C121.1997434 166.67894855 117.58643509 161.60024775 114 156.5 C108.28226802 148.37202697 102.47175675 140.31333638 96.64111328 132.26611328 C93.92351816 128.51355186 91.21212991 124.75651207 88.5 121 C87.96310547 120.25685547 87.42621094 119.51371094 86.87304688 118.74804688 C84.17422714 115.01246565 81.4775533 111.27536973 78.78515625 107.53515625 C72.65124511 99.0191437 66.46711146 90.54315961 60.22851562 82.10351562 C56.30085402 76.78399165 52.42025495 71.43286832 48.5625 66.0625 C43.35309615 58.81798646 38.02961048 51.66513478 32.66088867 44.53808594 C27.777716 38.05229855 22.96040195 31.52050514 18.15991211 24.97338867 C13.49892849 18.63495765 8.73407038 12.38015172 3.90966797 6.1652832 C0 1.10452371 0 1.10452371 0 0 Z " fill="#3C5C87" transform="translate(1041,1)"/>
<path d="M0 0 C2.919934 2.919934 2.74586811 5.44058437 3.015625 9.4765625 C2.79865342 58.40365328 -24.17922933 112.90789342 -41 158 C-41.37946777 159.01807739 -41.75893555 160.03615479 -42.14990234 161.08508301 C-75.9569353 251.66904711 -113.2349208 341.00961028 -174 484 C-174.50503052 485.18319824 -175.01006104 486.36639648 -175.53039551 487.58544922 C-187.88712454 516.53365416 -200.31477104 545.44645578 -213.02185059 574.24275208 C-216.06399554 581.13829582 -219.08274827 588.04392717 -222.09771729 594.9513855 C-228.58211555 609.80461159 -235.13143742 624.62889025 -241.68896484 639.44995117 C-245.66770239 648.44474707 -249.63813563 657.44299001 -253.58203125 666.453125 C-253.95371933 667.30219925 -254.32540741 668.1512735 -254.70835876 669.02607727 C-255.2637307 670.29477913 -255.2637307 670.29477913 -255.83032227 671.58911133 C-264.39751197 691.15932687 -273.10738136 710.66163092 -281.90032959 730.13137817 C-285.21758619 737.47752004 -288.51763243 744.83129421 -291.8125 752.1875 C-292.59500122 753.93365601 -292.59500122 753.93365601 -293.39331055 755.71508789 C-295.93725396 761.39255646 -298.47919141 767.07091822 -301.01953125 772.75 C-313.9657532 801.67979514 -327.02878431 830.55699713 -340.22412109 859.37402344 C-344.33545015 868.35324915 -348.42978945 877.33998196 -352.51077271 886.33303833 C-360.94508088 904.91729078 -369.46183955 923.46326578 -378 942 C-378.56164856 943.21964447 -378.56164856 943.21964447 -379.13464355 944.46392822 C-388.8093704 965.47256921 -398.52359731 986.46192831 -408.32324219 1007.41259766 C-410.02272683 1011.04862376 -411.71903069 1014.68611565 -413.4140625 1018.32421875 C-421.21635985 1035.0680943 -429.06562252 1051.78947801 -436.93963623 1068.4997406 C-439.32406713 1073.56132017 -441.70228936 1078.62578741 -444.078125 1083.69140625 C-450.9415986 1098.31912698 -457.86523842 1112.91290875 -464.92236328 1127.44824219 C-468.8754476 1135.61111923 -472.7104461 1143.82261708 -476.5 1152.0625 C-481.43386085 1162.77772378 -486.61195822 1173.34698613 -491.92333984 1183.87817383 C-495.41010605 1190.79718029 -498.81610357 1197.74437009 -502.125 1204.75 C-509.70155602 1220.75812822 -517.73385349 1236.54543751 -525.67822266 1252.37304688 C-530.25557041 1261.49331027 -534.82140873 1270.61917225 -539.35493469 1279.76130676 C-547.80633078 1296.80153536 -556.28745194 1313.78347049 -565.56103516 1330.39550781 C-567.14276079 1333.25839363 -568.68931538 1336.13851536 -570.23046875 1339.0234375 C-583.00448996 1362.92666761 -596.654943 1385.90543131 -615 1406 C-615.45197754 1406.50257324 -615.90395508 1407.00514648 -616.36962891 1407.52294922 C-626.08351563 1418.2227653 -639.49151432 1429.04818153 -654.44921875 1430.046875 C-659.81902869 1429.94819549 -663.96808111 1428.8712929 -667.9765625 1425.1796875 C-682.47312173 1407.96887888 -680.33968606 1381.08010893 -678.71142578 1359.96142578 C-671.30621937 1274.09806395 -638.90950316 1188.22852777 -516.87438965 898.86987305 C-515.96167082 896.91803345 -515.04969288 894.96584857 -514.13769531 893.01367188 C-506.19295262 876.01581089 -498.15035931 859.06904526 -489.93041992 842.20239258 C-489.32336739 840.95656127 -488.71635691 839.71070947 -488.109375 838.46484375 C-487.81794837 837.8670322 -487.52652174 837.26922066 -487.226264 836.65329361 C-485.26703114 832.62658991 -483.32422911 828.59242356 -481.39474487 824.55137634 C-474.41289041 809.93301223 -467.27467536 795.40043662 -460.0234375 780.9140625 C-458.92099628 778.7085031 -457.81867357 776.50288446 -456.71646118 774.29721069 C-454.43043243 769.72369629 -452.14299455 765.15089041 -449.85449219 760.57861328 C-446.94966134 754.77466674 -444.04844868 748.96892032 -441.14829063 743.16263771 C-438.88126571 738.62494365 -436.61230617 734.08821902 -434.34279251 729.55176926 C-433.2731045 727.41305088 -432.20398951 725.27404579 -431.13550949 723.13472366 C-425.28346701 711.42052849 -419.35451279 699.75699091 -413.21447754 688.19084167 C-410.93924622 683.9013474 -408.71789403 679.58506744 -406.5078125 675.26171875 C-406.12793025 674.51879106 -405.748048 673.77586336 -405.35665417 673.01042271 C-404.65094341 671.62975436 -403.94536588 670.24901791 -403.23989868 668.8682251 C-397.44003438 657.52377753 -391.5727801 646.233683 -385.40673828 635.08276367 C-381.29895133 627.62582237 -377.39082802 620.07138395 -373.5 612.5 C-368.68419567 603.13248042 -363.77931098 593.82533062 -358.69921875 584.59765625 C-354.21700249 576.44168715 -349.85550141 568.22404196 -345.5 560 C-338.75975037 547.28146613 -331.9436559 534.60894619 -325 522 C-324.40396973 520.91750977 -323.80793945 519.83501953 -323.19384766 518.71972656 C-319.50115497 512.0164727 -315.80330937 505.31607582 -312.10267639 498.61720276 C-308.73116053 492.51402619 -305.36295837 486.40902418 -301.99514771 480.30380249 C-300.99948099 478.49905924 -300.00356247 476.69445517 -299.00756836 474.88989258 C-295.97645762 469.39772857 -292.94674085 463.90481422 -289.92303467 458.40856934 C-282.4285242 444.78582554 -274.88264392 431.19596701 -267.2109375 417.671875 C-263.78390118 411.62763741 -260.39083781 405.56459833 -257 399.5 C-242.07441988 372.82165502 -226.94380491 346.26137861 -211.6472168 319.79418945 C-207.39253741 312.4278539 -203.16637781 305.04561079 -198.95285034 297.65570068 C-193.09463323 287.3816792 -187.18814177 277.13764208 -181.21411133 266.93041992 C-176.98490226 259.7014578 -172.79951119 252.44815797 -168.625 245.1875 C-162.87284487 235.19299066 -157.02981207 225.2556212 -151.13696289 215.34350586 C-146.45200295 207.46081156 -141.80160979 199.55877903 -137.1708374 191.64416504 C-131.1727802 181.39339642 -125.15780645 171.15595056 -119 161 C-118.40251953 160.01241699 -117.80503906 159.02483398 -117.18945312 158.00732422 C-99.88193972 129.40207983 -82.33520335 100.96103536 -64 73 C-63.56478027 72.33548828 -63.12956055 71.67097656 -62.68115234 70.98632812 C-35.82870605 30.07439648 -35.82870605 30.07439648 -19.90234375 13.078125 C-17.92303938 10.97526009 -17.92303938 10.97526009 -16.03125 8.44140625 C-14.02338906 6.02811185 -12.15967917 4.42945553 -9.5625 2.6875 C-8.82128906 2.17574219 -8.08007812 1.66398437 -7.31640625 1.13671875 C-4.6284741 -0.1823171 -2.95788299 -0.37035263 0 0 Z " fill="#60F3E9" transform="translate(1151,410)"/>
<path d="M0 0 C2.75144017 1.26849457 4.87415341 2.59801696 7.08203125 4.66796875 C7.67193848 5.21912354 8.2618457 5.77027832 8.86962891 6.33813477 C9.51077637 6.94842529 10.15192383 7.55871582 10.8125 8.1875 C11.50263184 8.83968506 12.19276367 9.49187012 12.90380859 10.16381836 C23.1365184 19.90312941 33.04607708 29.97755998 43 40 C46.50265956 43.5265225 50.00712253 47.05121902 53.51580811 50.57174683 C54.89367245 51.95597018 56.26842189 53.34329195 57.64306641 54.73071289 C58.49175293 55.58270264 59.34043945 56.43469238 60.21484375 57.3125 C60.94823975 58.05113281 61.68163574 58.78976563 62.43725586 59.55078125 C64.44027695 61.46507177 66.46492095 63.26820917 68.56750488 65.06750488 C74.21120746 69.97445725 79.43312421 75.30963863 84.70507812 80.60742188 C85.8654529 81.76971929 87.02605813 82.93178668 88.18687439 84.09364319 C90.67257012 86.58248342 93.15670771 89.07286451 95.63963318 91.56446838 C99.57147154 95.50990732 103.50719121 99.45145936 107.44348145 103.39245605 C116.50814004 112.46912251 125.5677641 121.55080861 134.62734222 130.63254547 C142.93539936 138.96081896 151.24453276 147.28801117 159.55773306 155.61115122 C163.46491898 159.52329825 167.36965855 163.43786535 171.27249908 167.35434723 C173.70665015 169.79599421 176.14290415 172.23553474 178.57971382 174.67452812 C179.70281808 175.79949327 180.82506326 176.92531688 181.94634819 178.05209541 C187.29775358 183.42887653 192.65986165 188.74389364 198.43834686 193.66663361 C200.39961406 195.34119738 202.24331603 197.11031961 204.0625 198.9375 C204.65160156 199.52402344 205.24070312 200.11054688 205.84765625 200.71484375 C207.63561348 202.61312865 209.3291847 204.54589326 211.02380371 206.52600098 C215.39193339 211.52468983 220.06552109 216.19050832 224.77148438 220.86914062 C225.73674049 221.83247298 226.7017658 222.79603665 227.6665802 223.7598114 C229.72980003 225.81989225 231.79455733 227.87841465 233.86054993 229.93571472 C237.13390452 233.19543953 240.40334547 236.45907126 243.67224121 239.7232666 C250.61185586 246.65182522 257.55570042 253.57613744 264.5 260.5 C271.99940139 267.97733071 279.49805004 275.45540729 286.99181032 282.93839216 C290.23492317 286.17655259 293.48045091 289.41226624 296.7279129 292.64606476 C298.75438832 294.66502941 300.77874353 296.68611003 302.80255699 298.70774269 C304.17470808 300.07715907 305.54937781 301.44405034 306.92414856 302.81083679 C311.29428791 307.18060609 315.50328414 311.61840493 319.5313797 316.30553436 C321.3014856 318.34784824 323.1612121 320.27505921 325.08007812 322.17773438 C325.79772339 322.89207642 326.51536865 323.60641846 327.25476074 324.34240723 C328.38162292 325.4568219 328.38162292 325.4568219 329.53125 326.59375 C330.32599731 327.38471069 331.12074463 328.17567139 331.9395752 328.99060059 C334.45728432 331.49619523 336.97821446 333.99850858 339.5 336.5 C342.82588189 339.7991168 346.14832336 343.10164374 349.46875 346.40625 C350.59561218 347.52066467 350.59561218 347.52066467 351.74523926 348.65759277 C355.77850057 352.67228954 359.60731879 356.78551642 363.32116699 361.09631348 C366.00994631 364.14521288 368.88710377 366.99128109 371.78125 369.84375 C372.39842896 370.45714233 373.01560791 371.07053467 373.65148926 371.70251465 C375.59854038 373.63750058 377.54882407 375.56917405 379.5 377.5 C394.11565872 391.96322324 394.11565872 391.96322324 399.29492188 398.07226562 C403.14173952 402.42141685 407.36703876 406.42549648 411.5 410.5 C416.95145156 415.87434475 422.29890458 421.24128292 427.27929688 427.05664062 C430.51165886 430.70726511 434.02264611 434.0848528 437.5 437.5 C442.29927226 442.21341766 446.91513651 446.98043581 451.30273438 452.08007812 C454.05904143 455.19797207 457.02753105 458.09008335 460 461 C464.21237733 465.16400343 468.27261592 469.35309518 472.09765625 473.87890625 C475.32363237 477.4758365 478.80327485 480.82234186 482.23803711 484.21850586 C485.72419142 487.68051016 489.01654984 491.22846921 492.1953125 494.9765625 C494.97716502 498.09560927 497.97534855 500.99589641 500.94921875 503.9296875 C504.22053502 507.1739681 507.26978569 510.53635165 510.2578125 514.0390625 C512.97044244 517.09229171 515.90600453 519.9140315 518.8125 522.78125 C521.40196881 525.40771122 523.78836964 528.16976458 526.1875 530.96875 C528.92654841 534.03837322 531.8768364 536.88528608 534.8046875 539.7734375 C537.44006743 542.44633174 539.87766489 545.25368303 542.3203125 548.1015625 C544.52165393 550.58959026 546.88088515 552.89194077 549.25 555.21875 C551.70634849 557.71896185 553.96309368 560.37680516 556.25 563.03125 C558.45017811 565.50645037 560.79431048 567.80761753 563.15722656 570.12597656 C564.93008148 571.92889579 566.58680548 573.78572043 568.234375 575.703125 C571.9637204 579.99226643 575.83769759 584.12807593 579.75 588.25 C585.33590298 594.15979795 590.87777694 600.10259389 596.359375 606.109375 C599.2284038 609.25002783 602.11256177 612.37628746 605 615.5 C612.91806009 624.07183315 620.81218263 632.66232647 628.6015625 641.3515625 C630.41844477 643.35782664 632.24561198 645.35136112 634.0859375 647.3359375 C634.88753296 648.20037476 634.88753296 648.20037476 635.70532227 649.08227539 C636.74850435 650.20532437 637.79317785 651.32699052 638.83959961 652.44702148 C639.80114513 653.48182761 640.75541646 654.52344898 641.70166016 655.57226562 C642.82804552 656.81090827 643.99474022 658.01266346 645.16796875 659.20703125 C647.94442699 663.43979807 648.83864995 667.98712012 650 672.875 C650.47850649 674.8100592 650.95768564 676.74495218 651.4375 678.6796875 C651.68701416 679.70126953 651.93652832 680.72285156 652.19360352 681.77539062 C653.0352151 685.14081774 653.93265919 688.48761437 654.83984375 691.8359375 C657.59309835 702.09616398 660.06180463 712.42590484 662.5625 722.75 C663.520348 726.70356159 664.48030655 730.6566028 665.44140625 734.609375 C665.65398575 735.48986511 665.86656525 736.37035522 666.08558655 737.27752686 C667.40054777 742.68547156 668.81545102 748.05711825 670.31201172 753.41773987 C671.52475898 757.96960359 672.47227058 762.57797204 673.4375 767.1875 C674.78167054 773.60059648 676.23167257 779.96474518 677.859375 786.3125 C680.51278048 796.73960495 682.64192638 807.27650778 684.8125 817.8125 C685.25329375 819.94118783 685.69421327 822.06984963 686.13525391 824.19848633 C689.59913008 840.94428474 693.00322638 857.70177818 696.30664062 874.47998047 C696.7353694 876.65653379 697.16597618 878.83271926 697.59960938 881.00830078 C700.1252865 893.67999674 702.24864654 906.40547165 704.25048828 919.16894531 C704.54802002 921.05564941 704.54802002 921.05564941 704.8515625 922.98046875 C705.02510254 924.09317139 705.19864258 925.20587402 705.37744141 926.35229492 C705.86291007 929.19676053 706.39857585 932.01247681 706.97485352 934.83886719 C707.9672512 939.74073043 708.78980686 944.65515685 709.55078125 949.59765625 C709.68978851 950.49282959 709.82879578 951.38800293 709.97201538 952.31030273 C710.42270742 955.22712419 710.86846189 958.14465845 711.3125 961.0625 C711.46651276 962.07287323 711.62052551 963.08324646 711.77920532 964.12423706 C714.83058156 984.2283617 717.42891825 1004.36810731 719.72393799 1024.5715332 C719.99752687 1026.97824435 720.27371926 1029.38464586 720.55029297 1031.79101562 C723.04990927 1053.6220381 725.22486385 1075.47292692 726.80993652 1097.39019775 C727.00847965 1100.11643593 727.2137671 1102.84212487 727.41894531 1105.56787109 C729.51997709 1133.93098355 730.27689808 1162.1964006 730.25 1190.625 C730.2496664 1191.38375301 730.24933281 1192.14250603 730.24898911 1192.92425156 C730.23086557 1223.56970551 729.86980291 1254.21708886 727.32543945 1284.77075195 C727.05552502 1288.02150415 726.80140062 1291.27324889 726.54882812 1294.52539062 C725.12107975 1312.48901014 725.12107975 1312.48901014 723.4621582 1321.37475586 C722.56262467 1326.48446747 722.11001771 1331.65545947 721.5625 1336.8125 C720.65525264 1344.99440997 719.5819072 1352.9816269 717.81640625 1361.0234375 C716.45059164 1367.38369933 715.5282076 1373.83751907 714.53344727 1380.26416016 C713.6098302 1386.0280286 712.37491217 1391.56917014 710.77636719 1397.18212891 C709.37593922 1402.26506588 708.27897608 1407.41916254 707.125 1412.5625 C703.44139402 1428.6585022 698.95937082 1444.3371884 693.9375 1460.0625 C693.72371704 1460.7359848 693.50993408 1461.4094696 693.28967285 1462.10336304 C691.11606649 1468.93116807 688.8897123 1475.65620762 685.85571289 1482.15893555 C684.68311219 1484.68178344 683.7178044 1487.26770605 682.75 1489.875 C680.55165455 1495.64395001 678.24462007 1501.36175346 675.875 1507.0625 C675.53823242 1507.88411621 675.20146484 1508.70573242 674.85449219 1509.55224609 C673.24958113 1513.38514199 671.76441711 1516.83208102 669 1520 C670.0785583 1514.84933382 671.30983177 1509.78514256 672.734375 1504.71875 C695.75966473 1422.64999785 693.49599519 1336.4109983 633.6796875 1075.984375 C633.33831757 1074.94361816 633.33831757 1074.94361816 632.99005127 1073.88183594 C631.65183715 1069.84142312 630.212602 1065.85136294 628.70346069 1061.87176514 C627.72136356 1059.25860539 626.80870224 1056.62331562 625.8984375 1053.984375 C613.30202554 1017.78401339 599.17904825 982.19048496 584 947 C583.54687439 945.94773224 583.54687439 945.94773224 583.08459473 944.87420654 C557.77870681 886.12287922 530.43885776 828.17148284 500.81347656 771.47412109 C499.1051358 768.2014112 497.40626706 764.92399578 495.7109375 761.64453125 C489.98901679 750.59402079 484.11466534 739.63618492 478.12890625 728.7265625 C475.33321716 723.62494007 472.58156962 718.50050557 469.83544922 713.37207031 C463.78972024 702.08648754 457.60568954 690.89271986 451.2734375 679.765625 C448.44670886 674.79805262 445.65518497 669.81155471 442.87182617 664.81958008 C432.52744227 646.27197685 421.88530497 627.89868872 411.1625061 609.56799316 C410.44481832 608.34108454 409.7274957 607.11396222 409.0105896 605.88659668 C404.43994426 598.0612137 404.43994426 598.0612137 399.71826172 590.32666016 C399.34640244 589.73021194 398.97454315 589.13376373 398.59141541 588.51924133 C397.55434795 586.86258881 396.51064441 585.21009589 395.46655273 583.55786133 C394 581 394 581 394 579 C393.34 578.67 392.68 578.34 392 578 C390.59919123 575.77037937 389.28269617 573.54584025 388 571.25 C387.64421875 570.62867188 387.2884375 570.00734375 386.921875 569.3671875 C385.39151207 566.66050082 384.00362746 564.00932056 382.875 561.109375 C382.1976331 558.82597737 382.1976331 558.82597737 380 558 C378.90402444 556.2198137 377.87667381 554.39740471 376.875 552.5625 C371.31233061 542.58053973 365.22654426 532.91531375 359.21417236 523.20072937 C356.76591765 519.24388362 354.3291949 515.28013089 351.8984375 511.3125 C345.46131558 500.80880372 338.98729263 490.33204529 332.375 479.9375 C331.81925293 479.06383789 331.26350586 478.19017578 330.69091797 477.29003906 C327.57128672 472.4060651 324.3837208 467.58225628 321.08837891 462.81469727 C320 461 320 461 320 459 C319.34 458.67 318.68 458.34 318 458 C316.90638568 456.26739718 315.87514171 454.49522066 314.875 452.70703125 C311.15369106 446.19954601 307.13147444 439.94025768 303 433.6875 C302.24283043 432.53651498 301.48600202 431.38530547 300.72949219 430.23388672 C299.20028551 427.90668525 297.66985514 425.58029587 296.13867188 423.25439453 C293.72452701 419.58081564 291.32608294 415.89730148 288.93115234 412.21118164 C267.14633736 378.69875859 245.00829036 345.42608774 222.58447266 312.33831787 C221.07780212 310.11481807 219.57192621 307.89078287 218.06640625 305.66650391 C204.54034541 285.68404747 190.88031112 265.8015606 177.08935547 246.00097656 C175.02829201 243.04063629 172.96890457 240.07913819 170.91015625 237.1171875 C162.2981249 224.72745728 153.66927883 212.34975575 145 200 C144.4848584 199.26587891 143.9697168 198.53175781 143.43896484 197.77539062 C137.30911225 189.04600825 131.11372454 180.36758361 124.85522461 171.72998047 C121.1997434 166.67894855 117.58643509 161.60024775 114 156.5 C108.28226802 148.37202697 102.47175675 140.31333638 96.64111328 132.26611328 C93.92351816 128.51355186 91.21212991 124.75651207 88.5 121 C87.96310547 120.25685547 87.42621094 119.51371094 86.87304688 118.74804688 C84.17422714 115.01246565 81.4775533 111.27536973 78.78515625 107.53515625 C72.65124511 99.0191437 66.46711146 90.54315961 60.22851562 82.10351562 C56.30085402 76.78399165 52.42025495 71.43286832 48.5625 66.0625 C43.35309615 58.81798646 38.02961048 51.66513478 32.66088867 44.53808594 C27.777716 38.05229855 22.96040195 31.52050514 18.15991211 24.97338867 C13.49892849 18.63495765 8.73407038 12.38015172 3.90966797 6.1652832 C0 1.10452371 0 1.10452371 0 0 Z " fill="#2ACD91" transform="translate(1041,1)"/>
<path d="M0 0 C2.919934 2.919934 2.74586811 5.44058437 3.015625 9.4765625 C2.90684417 34.00663905 -6.93916 59.175226 -14.375 82.3125 C-14.63957001 83.14174988 -14.90414001 83.97099976 -15.17672729 84.82537842 C-15.92918983 87.17436585 -16.69281274 89.51937502 -17.4609375 91.86328125 C-17.6877269 92.57222031 -17.9145163 93.28115936 -18.1481781 94.01158142 C-18.70803307 95.69458885 -19.34685693 97.35095309 -20 99 C-20.99 99.495 -20.99 99.495 -22 100 C-23.125 96.25 -23.125 96.25 -22 94 C-21.71205982 90.25677768 -21.83860424 89.24209364 -24 86 C-23.690625 85.46375 -23.38125 84.9275 -23.0625 84.375 C-21.40089768 80.66083011 -21 77.04399869 -21 73 C-20.53934932 70.95997557 -19.98772949 68.95500812 -19.4375 66.9375 C-18.88986956 64.84332634 -18.88986956 64.84332634 -19 62 C-19 55.25479938 -18.22720577 49.38465654 -16 43 C-16 41.68 -16 40.36 -16 39 C-15.97679687 37.98808594 -15.95359375 36.97617187 -15.9296875 35.93359375 C-15.81129953 28.36522017 -16.31257944 21.38246496 -18 14 C-19.65 15.65 -21.3 17.3 -23 19 C-23.66 18.67 -24.32 18.34 -25 18 C-24.54109375 17.55269531 -24.0821875 17.10539062 -23.609375 16.64453125 C-19.63981396 12.74219674 -19.63981396 12.74219674 -16.125 8.4375 C-11.95325137 3.65225893 -6.63067905 -0.83021858 0 0 Z " fill="#4CF3E3" transform="translate(1151,410)"/>
<path d="M0 0 C-1.28084473 0.11480713 -2.56168945 0.22961426 -3.88134766 0.34790039 C-31.374361 2.8248149 -58.82406602 5.56101947 -86.25 8.6875 C-86.91143257 8.76285603 -87.57286514 8.83821205 -88.25434113 8.91585159 C-104.30742997 10.74187195 -104.30742997 10.74187195 -120.35131836 12.64648438 C-121.13718323 12.7413765 -121.9230481 12.83626862 -122.73272705 12.93403625 C-124.72214578 13.17545533 -126.711077 13.42088309 -128.69995117 13.66674805 C-133.16669175 14.11781714 -137.5155263 14.14236424 -142 14 C-138.35689286 11.57126191 -135.19552356 11.36308638 -130.95654297 10.93432617 C-129.72331047 10.79963173 -129.72331047 10.79963173 -128.46516418 10.66221619 C-125.72493885 10.36479557 -122.98362096 10.07902102 -120.2421875 9.79296875 C-118.30436705 9.58440489 -116.3666344 9.3750238 -114.4289856 9.16487122 C-109.2866292 8.60898797 -104.14331793 8.06251632 -98.99969482 7.51849365 C-90.93208169 6.663905 -82.86583802 5.79647706 -74.79975128 4.92761612 C-72.80321717 4.71287004 -70.80660949 4.49880688 -68.80992889 4.28542709 C-57.86275084 3.11489517 -46.92561036 1.89219056 -36.00097656 0.52587891 C-35.04415796 0.40656289 -34.08733936 0.28724688 -33.10152626 0.16431522 C-28.56413845 -0.40349432 -24.02831894 -0.98127483 -19.49411011 -1.57392883 C-17.88818227 -1.77819524 -16.28223646 -1.98232041 -14.67626953 -2.1862793 C-13.59018843 -2.33335233 -13.59018843 -2.33335233 -12.48216629 -2.48339653 C-7.12000248 -3.1548582 -4.48073452 -2.98715635 0 0 Z " fill="#346F91" transform="translate(1099,1859)"/>
<path d="M0 0 C1.32 0.33 2.64 0.66 4 1 C2.88073409 3.62758146 1.75490802 6.25199924 0.625 8.875 C0.30789063 9.62136719 -0.00921875 10.36773438 -0.3359375 11.13671875 C-0.6453125 11.85214844 -0.9546875 12.56757812 -1.2734375 13.3046875 C-1.69761963 14.2944458 -1.69761963 14.2944458 -2.13037109 15.30419922 C-3 17 -3 17 -5 19 C-3.64746536 12.54945018 -1.96939767 6.28894321 0 0 Z " fill="#34B895" transform="translate(1715,1502)"/>
<path d="M0 0 C0 3 0 3 -1.19335938 4.53393555 C-1.73798828 5.062854 -2.28261719 5.59177246 -2.84375 6.13671875 C-3.72353516 7.00200195 -3.72353516 7.00200195 -4.62109375 7.88476562 C-5.24113281 8.47966797 -5.86117188 9.07457031 -6.5 9.6875 C-7.12003906 10.29400391 -7.74007813 10.90050781 -8.37890625 11.52539062 C-9.91264707 13.02373743 -11.45548198 14.51276493 -13 16 C-13.66 15.67 -14.32 15.34 -15 15 C-14.54109375 14.55269531 -14.0821875 14.10539062 -13.609375 13.64453125 C-10.85633163 10.93197382 -8.2215226 8.27848555 -5.8125 5.25 C-4.04730711 3.05872607 -2.31845332 1.57323618 0 0 Z " fill="#50E8DB" transform="translate(1141,413)"/>
<path d="M0 0 C0.66 0.33 1.32 0.66 2 1 C0.68 4.3 -0.64 7.6 -2 11 C-4 7 -4 7 -3.25 4.375 C-2 2 -2 2 0 0 Z " fill="#4BEADB" transform="translate(1132,499)"/>
<path d="M0 0 C2.9555377 2.75170751 5.11563315 5.41970299 7 9 C7 9.66 7 10.32 7 11 C6.01 11 5.02 11 4 11 C3.32880451 9.5437455 2.66318193 8.08492133 2 6.625 C1.62875 5.81289062 1.2575 5.00078125 0.875 4.1640625 C0 2 0 2 0 0 Z " fill="#219FA2" transform="translate(2089,1167)"/>
<path d="M0 0 C0.66 0.33 1.32 0.66 2 1 C1.67 2.32 1.34 3.64 1 5 C0.34 5 -0.32 5 -1 5 C-1 5.66 -1 6.32 -1 7 C-1.66 7 -2.32 7 -3 7 C-3 6.01 -3 5.02 -3 4 C-3.66 3.67 -4.32 3.34 -5 3 C-4.34 2.67 -3.68 2.34 -3 2 C-2.34 2.33 -1.68 2.66 -1 3 C-0.67 2.01 -0.34 1.02 0 0 Z " fill="#5DE8DB" transform="translate(637,1594)"/>
<path d="M0 0 C2 1 2 1 2 1 Z M-2 1 C-1.01 1.33 -0.02 1.66 1 2 C0.67 2.99 0.34 3.98 0 5 C-0.66 5 -1.32 5 -2 5 C-2.33 4.01 -2.66 3.02 -3 2 C-2.67 1.67 -2.34 1.34 -2 1 Z M-3 5 C-2.34 5.66 -1.68 6.32 -1 7 C-1.33 7.66 -1.66 8.32 -2 9 C-2.66 9 -3.32 9 -4 9 C-3.67 7.68 -3.34 6.36 -3 5 Z " fill="#6DFBF8" transform="translate(698,1240)"/>
<path d="" fill="#36B7AF" transform="translate(0,0)"/>
</svg>
